<?xml version="1.0" encoding="utf-8"?>
<!-- Svg Vector Icons : http://www.onlinewebfonts.com/icon -->
<!DOCTYPE svg PUBLIC "-//W3C//DTD SVG 1.1//EN" "http://www.w3.org/Graphics/SVG/1.1/DTD/svg11.dtd">
<svg version="1.1" xmlns="http://www.w3.org/2000/svg" xmlns:xlink="http://www.w3.org/1999/xlink" x="0px" y="0px" viewBox="0 0 1000 1000" enable-background="new 0 0 1000 1000" xml:space="preserve">
<metadata> Svg Vector Icons : http://www.onlinewebfonts.com/icon </metadata>
<g><path d="M212.5,10c20.9,0,38.6,7.3,53.1,21.8c14.5,14.5,21.8,32.3,21.8,53.1v127.5c0,20.9-7.3,38.6-21.8,53.1c-14.5,14.5-32.3,21.8-53.1,21.8H85c-20.9,0-38.6-7.3-53.1-21.8C17.3,251.1,10,233.4,10,212.5V85c0-20.9,7.3-38.6,21.8-53.1C46.4,17.3,64.1,10,85,10H212.5L212.5,10z M566,10c20.9,0,38.6,7.3,53.1,21.8C633.7,46.4,641,64.1,641,85v127.5c0,20.9-7.3,38.6-21.8,53.1c-14.5,14.5-32.3,21.8-53.1,21.8H436.2c-20.9,0-38.6-7.3-53.1-21.8c-14.5-14.5-21.8-32.3-21.8-53.1V85c0-20.9,7.3-38.6,21.8-53.1C397.6,17.3,415.3,10,436.2,10H566L566,10z M915,10c20.9,0,38.6,7.3,53.1,21.8C982.7,46.4,990,64.1,990,85v127.5c0,20.9-7.3,38.6-21.8,53.1c-14.5,14.5-32.3,21.8-53.1,21.8H785.3c-20.9,0-38.6-7.3-53.1-21.8c-14.5-14.5-21.8-32.3-21.8-53.1V85c0-20.9,7.3-38.6,21.8-53.1C746.7,17.3,764.4,10,785.3,10H915L915,10z M212.5,361.3c20.9,0,38.6,7.3,53.1,21.8c14.5,14.5,21.8,32.3,21.8,53.1v127.5c0,20.9-7.3,38.6-21.8,53.1c-14.5,14.5-32.3,21.8-53.1,21.8H85c-20.9,0-38.6-7.3-53.1-21.8C17.3,602.4,10,584.6,10,563.8V436.2c0-20.9,7.3-38.6,21.8-53.1c14.5-14.5,32.3-21.8,53.1-21.8H212.5L212.5,361.3z M566,361.3c20.9,0,38.6,7.3,53.1,21.8c14.5,14.5,21.8,32.3,21.8,53.1v127.5c0,20.9-7.3,38.6-21.8,53.1c-14.5,14.5-32.3,21.8-53.1,21.8H436.2c-20.9,0-38.6-7.3-53.1-21.8c-14.5-14.5-21.8-32.3-21.8-53.1V436.2c0-20.9,7.3-38.6,21.8-53.1c14.5-14.5,32.3-21.8,53.1-21.8H566L566,361.3z M915,361.3c20.9,0,38.6,7.3,53.1,21.8c14.5,14.5,21.8,32.3,21.8,53.1v127.5c0,20.9-7.3,38.6-21.8,53.1c-14.5,14.5-32.3,21.8-53.1,21.8H785.3c-20.9,0-38.6-7.3-53.1-21.8c-14.5-14.5-21.8-32.3-21.8-53.1V436.2c0-20.9,7.3-38.6,21.8-53.1c14.5-14.5,32.3-21.8,53.1-21.8H915L915,361.3z M212.5,712.6c20.9,0,38.6,7.3,53.1,21.8c14.5,14.5,21.8,32.3,21.8,53.1V915c0,20.9-7.3,38.6-21.8,53.1c-14.5,14.5-32.3,21.8-53.1,21.8H85c-20.9,0-38.6-7.3-53.1-21.8C17.3,953.6,10,935.9,10,915V787.5c0-20.9,7.3-38.6,21.8-53.1c14.5-14.5,32.3-21.8,53.1-21.8L212.5,712.6L212.5,712.6z M566,712.6c20.9,0,38.6,7.3,53.1,21.8c14.5,14.5,21.8,32.3,21.8,53.1V915c0,20.9-7.3,38.6-21.8,53.1C604.6,982.7,586.9,990,566,990H436.2c-20.9,0-38.6-7.3-53.1-21.8c-14.5-14.5-21.8-32.3-21.8-53.1V787.5c0-20.9,7.3-38.6,21.8-53.1c14.5-14.5,32.3-21.8,53.1-21.8H566L566,712.6z M915,712.6c20.9,0,38.6,7.3,53.1,21.8c14.5,14.5,21.8,32.3,21.8,53.1V915c0,20.9-7.3,38.6-21.8,53.1C953.6,982.7,935.9,990,915,990H785.3c-20.9,0-38.6-7.3-53.1-21.8c-14.5-14.5-21.8-32.3-21.8-53.1V787.5c0-20.9,7.3-38.6,21.8-53.1c14.5-14.5,32.3-21.8,53.1-21.8H915L915,712.6z"/></g>
</svg>